<svg xmlns="http://www.w3.org/2000/svg" viewBox="0 0 100 100">
  <defs>
    <linearGradient id="fireGradient" x1="0%" y1="0%" x2="0%" y2="100%">
      <stop offset="0%" style="stop-color:#FF8C42;stop-opacity:1" />
      <stop offset="50%" style="stop-color:#FF6B35;stop-opacity:1" />
      <stop offset="100%" style="stop-color:#F44E3B;stop-opacity:1" />
    </linearGradient>
  </defs>
  
  <!-- Flame shape -->
  <path d="M50 10 C35 25, 30 40, 30 55 C30 70, 38 85, 50 90 C62 85, 70 70, 70 55 C70 40, 65 25, 50 10 Z" 
        fill="url(#fireGradient)"/>
  
  <!-- Inner flame -->
  <path d="M50 25 C42 35, 40 45, 40 55 C40 65, 43 75, 50 80 C57 75, 60 65, 60 55 C60 45, 58 35, 50 25 Z" 
        fill="#FFB84D" opacity="0.8"/>
  
  <!-- Highlight -->
  <ellipse cx="48" cy="45" rx="8" ry="12" fill="#FFDE8A" opacity="0.6"/>
</svg>
